<svg width="2000" height="2000" viewBox="0 0 2000 2000" fill="none" xmlns="http://www.w3.org/2000/svg">
<path d="M1000 2000C1552.28 2000 2000 1552.28 2000 1000C2000 447.715 1552.28 0 1000 0C447.715 0 0 447.715 0 1000C0 1552.28 447.715 2000 1000 2000Z" fill="url(#paint0_linear_103_220)"/>
<path fill-rule="evenodd" clip-rule="evenodd" d="M452.657 989.444C744.177 862.433 938.57 778.7 1035.83 738.244C1313.54 622.735 1371.25 602.67 1408.86 602.007C1417.14 601.861 1435.63 603.912 1447.61 613.634C1457.73 621.843 1460.51 632.932 1461.84 640.715C1463.18 648.498 1464.84 666.228 1463.52 680.081C1448.47 838.205 1383.35 1221.93 1350.22 1399.03C1336.2 1473.97 1308.6 1499.09 1281.88 1501.55C1223.81 1506.9 1179.71 1463.18 1123.47 1426.31C1035.45 1368.61 985.732 1332.7 900.3 1276.4C801.569 1211.34 865.572 1175.58 921.839 1117.14C936.564 1101.84 1192.43 869.113 1197.38 848.001C1198 845.36 1198.58 835.518 1192.73 830.321C1186.88 825.124 1178.25 826.901 1172.02 828.314C1163.2 830.318 1022.6 923.251 750.219 1107.11C710.31 1134.52 674.161 1147.87 641.773 1147.17C606.068 1146.4 537.385 1126.98 486.327 1110.38C423.702 1090.03 373.929 1079.26 378.263 1044.69C380.521 1026.69 405.318 1008.27 452.657 989.444Z" fill="white"/>
<defs>
<linearGradient id="paint0_linear_103_220" x1="1000" y1="0" x2="1000" y2="1985.17" gradientUnits="userSpaceOnUse">
<stop stop-color="#2AABEE"/>
<stop offset="1" stop-color="#229ED9"/>
</linearGradient>
</defs>
</svg>
